<?xml version="1.0" encoding="iso-8859-1"?>
<!-- Generator: Adobe Illustrator 16.0.0, SVG Export Plug-In . SVG Version: 6.00 Build 0)  -->
<!DOCTYPE svg PUBLIC "-//W3C//DTD SVG 1.1//EN" "http://www.w3.org/Graphics/SVG/1.1/DTD/svg11.dtd">
<svg version="1.1" id="Capa_1" xmlns="http://www.w3.org/2000/svg" xmlns:xlink="http://www.w3.org/1999/xlink" x="0px" y="0px"
	 width="97.984px" height="97.983px" viewBox="0 0 97.984 97.983" style="enable-background:new 0 0 97.984 97.983;"
	 xml:space="preserve">
<g>
	<g>
		<path d="M46.07,44.344l3.273,0.27c0.001,0,0.003,0.002,0.003,0.002v-0.002l0.021,0.002l-0.023-0.014
			c-0.866-5.101-2.306-22.852-6.52-31.737C35.691-2.183,7.373,7.472,13.738,22.821c-20.875-0.583-14.797,22.953-2.614,23.997
			C24.465,47.96,30.445,42.985,46.07,44.344z"/>
		<path d="M50.199,54.228c-0.193-1.177-0.342-2.216-0.455-3.127c-0.381-3.051-0.373-4.633-0.368-4.918l0.012-0.018h-0.012
			c0.001-0.021,0.001-0.032,0.001-0.032l0,0l0,0c0,0-0.008,0.013-0.021,0.034l-6.868,0.426c-1.051,0.068-28.753,2.658-32.802,18.436
			C6.741,76.505,13.649,85.415,25.15,83.032c0.755,4.604,2.517,7.849,4.819,9.976c7.952,7.346,22.373,1.312,24.203-8.444
			c1.636-8.721-0.209-15.697-1.978-22.087C51.409,59.644,50.641,56.928,50.199,54.228z"/>
		<path d="M97.982,58.573c0.089-5.578-3.388-11.7-10.063-13.469c-4.726-1.252-8.343-1.744-12.037-1.744
			c-4.987,0-10.114,0.897-18.303,2.04l-6.37,0.706l0,0l0,0l0,0l0,0c0.004,0.011,0.008,0.027,0.012,0.04l-0.012,0.002l0.014,0.009
			c0.533,2.046,5.506,21.155,11.051,32.244c5.831,11.662,28.59,4.385,21.175-10.048C93.235,70.547,97.902,64.901,97.982,58.573z"/>
		<path d="M51.148,44.596L51.148,44.596L51.148,44.596L51.148,44.596c0.001-0.002,0.008-0.003,0.019-0.008
			c0.002,0.011,0.002,0.019,0.002,0.019s0.007-0.01,0.017-0.024c0.371-0.13,3.481-1.198,7.512-2.114
			c11.028-2.504,20.144-2.055,25.858-5.933C98.163,27.305,87.317,3.89,72.784,12.95c0.568-5.267-1.47-8.551-4.521-10.12
			c-1.454-0.751-3.139-1.116-4.885-1.116c-5.943,0-12.582,4.196-13.11,11.459C49.311,26.281,51.147,44.59,51.148,44.596
			L51.148,44.596L51.148,44.596z"/>
	</g>
</g>
<g>
</g>
<g>
</g>
<g>
</g>
<g>
</g>
<g>
</g>
<g>
</g>
<g>
</g>
<g>
</g>
<g>
</g>
<g>
</g>
<g>
</g>
<g>
</g>
<g>
</g>
<g>
</g>
<g>
</g>
</svg>
